<svg width="14" height="14" viewBox="0 0 14 14" fill="none" xmlns="http://www.w3.org/2000/svg">
<path fill-rule="evenodd" clip-rule="evenodd" d="M4.66678 2.91663C4.66678 1.95013 5.45028 1.16663 6.41678 1.16663H7.58345C8.54994 1.16663 9.33345 1.95013 9.33345 2.91663V3.59954C9.5159 3.53505 9.71224 3.49996 9.91678 3.49996H11.0834C12.0499 3.49996 12.8334 4.28346 12.8334 5.24996V11.0833C12.8334 12.0498 12.0499 12.8333 11.0834 12.8333H2.91678C1.95028 12.8333 1.16678 12.0498 1.16678 11.0833V7.58329C1.16678 6.6168 1.95028 5.83329 2.91678 5.83329H4.08345C4.28798 5.83329 4.48432 5.86838 4.66678 5.93287V2.91663ZM5.83345 11.6666H8.16678V2.91663C8.16678 2.59446 7.90561 2.33329 7.58345 2.33329H6.41678C6.09461 2.33329 5.83345 2.59446 5.83345 2.91663V11.6666ZM9.33345 11.6666H11.0834C11.4056 11.6666 11.6668 11.4055 11.6668 11.0833V5.24996C11.6668 4.92779 11.4056 4.66663 11.0834 4.66663H9.91678C9.59461 4.66663 9.33345 4.92779 9.33345 5.24996V11.6666ZM4.66678 11.6666V7.58329C4.66678 7.26113 4.40561 6.99996 4.08345 6.99996H2.91678C2.59461 6.99996 2.33345 7.26113 2.33345 7.58329V11.0833C2.33345 11.4055 2.59461 11.6666 2.91678 11.6666H4.66678Z" fill="#71717A"/>
</svg>
