<svg width="14" height="14" viewBox="0 0 14 14" fill="none" xmlns="http://www.w3.org/2000/svg">
<path fill-rule="evenodd" clip-rule="evenodd" d="M2.91678 2.33329C2.59461 2.33329 2.33345 2.59446 2.33345 2.91663V11.0833C2.33345 11.4055 2.59461 11.6666 2.91678 11.6666H11.0834C11.4056 11.6666 11.6668 11.4055 11.6668 11.0833V2.91663C11.6668 2.59446 11.4056 2.33329 11.0834 2.33329H2.91678ZM1.16678 2.91663C1.16678 1.95013 1.95028 1.16663 2.91678 1.16663H11.0834C12.0499 1.16663 12.8334 1.95013 12.8334 2.91663V11.0833C12.8334 12.0498 12.0499 12.8333 11.0834 12.8333H2.91678C1.95028 12.8333 1.16678 12.0498 1.16678 11.0833V2.91663ZM10.3293 4.83748C10.5571 5.06529 10.5571 5.43463 10.3293 5.66244L8.57926 7.41244C8.46986 7.52183 8.32149 7.58329 8.16678 7.58329H6.07507L4.49592 9.16244C4.26812 9.39024 3.89877 9.39024 3.67097 9.16244C3.44316 8.93463 3.44316 8.56529 3.67097 8.33748L5.42097 6.58748C5.53036 6.47808 5.67874 6.41663 5.83345 6.41663H7.92515L9.5043 4.83748C9.73211 4.60967 10.1015 4.60967 10.3293 4.83748Z" fill="#71717A"/>
</svg>
