<svg width="14" height="14" viewBox="0 0 14 14" fill="none" xmlns="http://www.w3.org/2000/svg">
<path fill-rule="evenodd" clip-rule="evenodd" d="M6.41653 2.3694C4.11452 2.65645 2.3332 4.62018 2.3332 6.99996C2.3332 9.57729 4.42254 11.6666 6.99987 11.6666C8.07828 11.6666 9.07126 11.3008 9.86149 10.6865L6.58739 7.41244C6.47799 7.30304 6.41653 7.15467 6.41653 6.99996V2.3694ZM7.5832 2.36989V6.12055L11.0386 4.66196C10.8522 4.34001 10.6277 4.04093 10.3695 3.77145C10.3247 3.72469 10.2789 3.67886 10.2322 3.634C10.1085 3.5152 9.97788 3.40286 9.84075 3.29764C9.18112 2.79149 8.40124 2.47295 7.5832 2.36989ZM11.4923 5.7368L8.02519 7.20033L10.6863 9.86143C11.0662 9.37195 11.3461 8.81007 11.5075 8.20778C11.6135 7.81215 11.6665 7.40606 11.6665 6.99996C11.6665 6.59386 11.6135 6.18777 11.5075 5.79214C11.5026 5.77365 11.4975 5.7552 11.4923 5.7368ZM12.8332 6.99996C12.8332 10.2216 10.2215 12.8333 6.99987 12.8333C3.77821 12.8333 1.16653 10.2216 1.16653 6.99996C1.16653 3.7783 3.77821 1.16663 6.99987 1.16663C8.56748 1.16663 9.99067 1.78498 11.0388 2.79108C11.0677 2.81882 11.0963 2.84685 11.1247 2.87517C11.1656 2.91615 11.206 2.95773 11.2458 2.9999C12.23 4.04424 12.8332 5.45166 12.8332 6.99996Z" fill="#09090B"/>
</svg>
